<mxfile host="Electron" agent="Mozilla/5.0 (Windows NT 10.0; Win64; x64) AppleWebKit/537.36 (KHTML, like Gecko) draw.io/26.0.16 Chrome/132.0.6834.196 Electron/34.2.0 Safari/537.36" version="26.0.16">
  <diagram id="R2lEEEUBdFMjLlhIrx00" name="Page-1">
    <mxGraphModel dx="1790" dy="595" grid="1" gridSize="10" guides="1" tooltips="1" connect="1" arrows="1" fold="1" page="1" pageScale="1" pageWidth="850" pageHeight="1100" background="#ffffff" math="0" shadow="0" extFonts="Permanent Marker^https://fonts.googleapis.com/css?family=Permanent+Marker">
      <root>
        <mxCell id="0" />
        <mxCell id="1" parent="0" />
        <mxCell id="oFR8oHR5_JcXje1mtnLa-1" value="Bus Driver" style="shape=umlActor;verticalLabelPosition=bottom;verticalAlign=top;html=1;outlineConnect=0;" parent="1" vertex="1">
          <mxGeometry x="20" y="30" width="30" height="60" as="geometry" />
        </mxCell>
        <mxCell id="oFR8oHR5_JcXje1mtnLa-2" value="S&lt;span style=&quot;background-color: transparent; color: light-dark(rgb(0, 0, 0), rgb(255, 255, 255));&quot;&gt;cientist&lt;/span&gt;" style="shape=umlActor;verticalLabelPosition=bottom;verticalAlign=top;html=1;outlineConnect=0;" parent="1" vertex="1">
          <mxGeometry x="20" y="150" width="30" height="60" as="geometry" />
        </mxCell>
        <mxCell id="oFR8oHR5_JcXje1mtnLa-3" value="Hobbyist" style="shape=umlActor;verticalLabelPosition=bottom;verticalAlign=top;html=1;outlineConnect=0;" parent="1" vertex="1">
          <mxGeometry x="20" y="370" width="30" height="60" as="geometry" />
        </mxCell>
        <mxCell id="oFR8oHR5_JcXje1mtnLa-4" value="Teacher" style="shape=umlActor;verticalLabelPosition=bottom;verticalAlign=top;html=1;outlineConnect=0;" parent="1" vertex="1">
          <mxGeometry x="20" y="260" width="30" height="60" as="geometry" />
        </mxCell>
        <mxCell id="oFR8oHR5_JcXje1mtnLa-5" value="Storm Chaser" style="shape=umlActor;verticalLabelPosition=bottom;verticalAlign=top;html=1;outlineConnect=0;" parent="1" vertex="1">
          <mxGeometry x="20" y="490" width="30" height="60" as="geometry" />
        </mxCell>
        <mxCell id="oFR8oHR5_JcXje1mtnLa-7" value="Meteorologist" style="shape=umlActor;verticalLabelPosition=bottom;verticalAlign=top;html=1;outlineConnect=0;" parent="1" vertex="1">
          <mxGeometry x="20" y="610" width="30" height="60" as="geometry" />
        </mxCell>
        <mxCell id="oFR8oHR5_JcXje1mtnLa-8" value="Parent" style="shape=umlActor;verticalLabelPosition=bottom;verticalAlign=top;html=1;outlineConnect=0;" parent="1" vertex="1">
          <mxGeometry x="20" y="720" width="30" height="60" as="geometry" />
        </mxCell>
        <mxCell id="oFR8oHR5_JcXje1mtnLa-12" value="Quick Forecast for Fieldwork" style="ellipse;whiteSpace=wrap;html=1;align=center;" parent="1" vertex="1">
          <mxGeometry x="540" width="100" height="50" as="geometry" />
        </mxCell>
        <mxCell id="oFR8oHR5_JcXje1mtnLa-13" value="Teaching About Weather Systems" style="ellipse;whiteSpace=wrap;html=1;align=center;" parent="1" vertex="1">
          <mxGeometry x="520" y="231" width="120" height="60" as="geometry" />
        </mxCell>
        <mxCell id="oFR8oHR5_JcXje1mtnLa-14" value="Data Analysis for Predictions" style="ellipse;whiteSpace=wrap;html=1;align=center;" parent="1" vertex="1">
          <mxGeometry x="721" y="268" width="110" height="60" as="geometry" />
        </mxCell>
        <mxCell id="oFR8oHR5_JcXje1mtnLa-15" value="Data for Climate Study" style="ellipse;whiteSpace=wrap;html=1;align=center;" parent="1" vertex="1">
          <mxGeometry x="520" y="70" width="120" height="50" as="geometry" />
        </mxCell>
        <mxCell id="oFR8oHR5_JcXje1mtnLa-16" value="Wind Data for Flight Planning" style="ellipse;whiteSpace=wrap;html=1;align=center;" parent="1" vertex="1">
          <mxGeometry x="520" y="479" width="100" height="60" as="geometry" />
        </mxCell>
        <mxCell id="oFR8oHR5_JcXje1mtnLa-17" value="Comparing Weather Conditions" style="ellipse;whiteSpace=wrap;html=1;align=center;" parent="1" vertex="1">
          <mxGeometry x="520" y="569" width="140" height="40" as="geometry" />
        </mxCell>
        <mxCell id="oFR8oHR5_JcXje1mtnLa-18" value="Road Safety for Public Transport" style="ellipse;whiteSpace=wrap;html=1;align=center;" parent="1" vertex="1">
          <mxGeometry x="520" y="399" width="115" height="50" as="geometry" />
        </mxCell>
        <mxCell id="oFR8oHR5_JcXje1mtnLa-19" value="Planning Outdoor Activities for Kids" style="ellipse;whiteSpace=wrap;html=1;align=center;" parent="1" vertex="1">
          <mxGeometry x="520" y="709" width="110" height="60" as="geometry" />
        </mxCell>
        <mxCell id="oFR8oHR5_JcXje1mtnLa-20" value="Using Weather Data for Academic Research" style="ellipse;whiteSpace=wrap;html=1;align=center;" parent="1" vertex="1">
          <mxGeometry x="520" y="789" width="140" height="60" as="geometry" />
        </mxCell>
        <mxCell id="oFR8oHR5_JcXje1mtnLa-21" value="Studying the Effects of Rainfall" style="ellipse;whiteSpace=wrap;html=1;align=center;" parent="1" vertex="1">
          <mxGeometry x="520" y="639" width="150" height="50" as="geometry" />
        </mxCell>
        <mxCell id="oFR8oHR5_JcXje1mtnLa-22" value="Learning Weather Patterns" style="ellipse;whiteSpace=wrap;html=1;align=center;" parent="1" vertex="1">
          <mxGeometry x="720" width="120" height="60" as="geometry" />
        </mxCell>
        <mxCell id="oFR8oHR5_JcXje1mtnLa-23" value="Checking Weather for School Drop-Off" style="ellipse;whiteSpace=wrap;html=1;align=center;" parent="1" vertex="1">
          <mxGeometry x="520" y="320" width="140" height="60" as="geometry" />
        </mxCell>
        <mxCell id="oFR8oHR5_JcXje1mtnLa-24" value="Monitoring Severe Weather Events" style="ellipse;whiteSpace=wrap;html=1;align=center;" parent="1" vertex="1">
          <mxGeometry x="715" y="190" width="130" height="50" as="geometry" />
        </mxCell>
        <mxCell id="oFR8oHR5_JcXje1mtnLa-25" value="Scientific Weather Research" style="ellipse;whiteSpace=wrap;html=1;align=center;" parent="1" vertex="1">
          <mxGeometry x="730" y="100" width="110" height="60" as="geometry" />
        </mxCell>
        <mxCell id="oFR8oHR5_JcXje1mtnLa-26" value="Classroom Demonstration Tool" style="ellipse;whiteSpace=wrap;html=1;align=center;" parent="1" vertex="1">
          <mxGeometry x="700" y="440" width="140" height="40" as="geometry" />
        </mxCell>
        <mxCell id="oFR8oHR5_JcXje1mtnLa-27" value="Enhancing AI Models with Weather Data" style="ellipse;whiteSpace=wrap;html=1;align=center;" parent="1" vertex="1">
          <mxGeometry x="710" y="500" width="130" height="60" as="geometry" />
        </mxCell>
        <mxCell id="oFR8oHR5_JcXje1mtnLa-28" value="Real-Time Data for Chasing Tornadoes" style="ellipse;whiteSpace=wrap;html=1;align=center;" parent="1" vertex="1">
          <mxGeometry x="710" y="370" width="130" height="60" as="geometry" />
        </mxCell>
        <mxCell id="oFR8oHR5_JcXje1mtnLa-29" value="Real-Time Temperature Tracking" style="ellipse;whiteSpace=wrap;html=1;align=center;" parent="1" vertex="1">
          <mxGeometry x="740" y="680" width="100" height="50" as="geometry" />
        </mxCell>
        <mxCell id="oFR8oHR5_JcXje1mtnLa-30" value="Building a Personal Weather Database" style="ellipse;whiteSpace=wrap;html=1;align=center;" parent="1" vertex="1">
          <mxGeometry x="690" y="760" width="150" height="50" as="geometry" />
        </mxCell>
        <mxCell id="oFR8oHR5_JcXje1mtnLa-31" value="Managing Public Transport in Snowy Conditions" style="ellipse;whiteSpace=wrap;html=1;align=center;" parent="1" vertex="1">
          <mxGeometry x="705" y="590" width="140" height="60" as="geometry" />
        </mxCell>
        <mxCell id="oFR8oHR5_JcXje1mtnLa-35" value="Locating Thunderstorm Hotspots" style="ellipse;whiteSpace=wrap;html=1;align=center;" parent="1" vertex="1">
          <mxGeometry x="530" y="879" width="100" height="50" as="geometry" />
        </mxCell>
        <mxCell id="oFR8oHR5_JcXje1mtnLa-36" value="Investigating Climate Change Impact" style="ellipse;whiteSpace=wrap;html=1;align=center;" parent="1" vertex="1">
          <mxGeometry x="740" y="840" width="100" height="70" as="geometry" />
        </mxCell>
        <mxCell id="oFR8oHR5_JcXje1mtnLa-37" value="Enhancing STEM Lessons" style="ellipse;whiteSpace=wrap;html=1;align=center;" parent="1" vertex="1">
          <mxGeometry x="530" y="959" width="130" height="40" as="geometry" />
        </mxCell>
        <mxCell id="oFR8oHR5_JcXje1mtnLa-38" value="Predicting Traffic Delays Due to Weather" style="ellipse;whiteSpace=wrap;html=1;align=center;" parent="1" vertex="1">
          <mxGeometry x="720" y="930" width="120" height="70" as="geometry" />
        </mxCell>
        <mxCell id="oFR8oHR5_JcXje1mtnLa-39" value="" style="endArrow=open;endSize=12;dashed=1;html=1;rounded=0;fontSize=12;curved=1;entryX=1;entryY=0.5;entryDx=0;entryDy=0;exitX=0;exitY=0.5;exitDx=0;exitDy=0;" parent="1" source="oFR8oHR5_JcXje1mtnLa-28" target="oFR8oHR5_JcXje1mtnLa-41" edge="1">
          <mxGeometry width="160" relative="1" as="geometry">
            <mxPoint x="710" y="369.33" as="sourcePoint" />
            <mxPoint x="660" y="220" as="targetPoint" />
          </mxGeometry>
        </mxCell>
        <mxCell id="oFR8oHR5_JcXje1mtnLa-40" value="" style="endArrow=open;endSize=12;dashed=1;html=1;rounded=0;fontSize=12;curved=1;entryX=1;entryY=0.5;entryDx=0;entryDy=0;exitX=0;exitY=0.5;exitDx=0;exitDy=0;" parent="1" source="oFR8oHR5_JcXje1mtnLa-14" target="oFR8oHR5_JcXje1mtnLa-12" edge="1">
          <mxGeometry width="160" relative="1" as="geometry">
            <mxPoint x="690" y="260" as="sourcePoint" />
            <mxPoint x="680" y="140" as="targetPoint" />
          </mxGeometry>
        </mxCell>
        <mxCell id="oFR8oHR5_JcXje1mtnLa-41" value="Storm Path Tracking" style="ellipse;whiteSpace=wrap;html=1;align=center;" parent="1" vertex="1">
          <mxGeometry x="520" y="160" width="100" height="40" as="geometry" />
        </mxCell>
        <mxCell id="oFR8oHR5_JcXje1mtnLa-42" value="" style="endArrow=open;endSize=12;dashed=1;html=1;rounded=0;fontSize=12;curved=1;exitX=0;exitY=0.5;exitDx=0;exitDy=0;entryX=1;entryY=0.5;entryDx=0;entryDy=0;" parent="1" source="oFR8oHR5_JcXje1mtnLa-24" target="oFR8oHR5_JcXje1mtnLa-15" edge="1">
          <mxGeometry width="160" relative="1" as="geometry">
            <mxPoint x="210" y="229.67000000000002" as="sourcePoint" />
            <mxPoint x="370" y="229.67000000000002" as="targetPoint" />
          </mxGeometry>
        </mxCell>
        <mxCell id="oFR8oHR5_JcXje1mtnLa-44" value="" style="endArrow=open;endSize=12;dashed=1;html=1;rounded=0;fontSize=12;curved=1;entryX=0;entryY=0.5;entryDx=0;entryDy=0;exitX=1;exitY=0.5;exitDx=0;exitDy=0;" parent="1" source="oFR8oHR5_JcXje1mtnLa-12" target="oFR8oHR5_JcXje1mtnLa-25" edge="1">
          <mxGeometry width="160" relative="1" as="geometry">
            <mxPoint x="311" y="206" as="sourcePoint" />
            <mxPoint x="471" y="206" as="targetPoint" />
          </mxGeometry>
        </mxCell>
        <mxCell id="oFR8oHR5_JcXje1mtnLa-45" value="" style="endArrow=open;endSize=12;dashed=1;html=1;rounded=0;fontSize=12;curved=1;entryX=1;entryY=0.5;entryDx=0;entryDy=0;exitX=0;exitY=0.5;exitDx=0;exitDy=0;" parent="1" source="oFR8oHR5_JcXje1mtnLa-28" target="oFR8oHR5_JcXje1mtnLa-13" edge="1">
          <mxGeometry width="160" relative="1" as="geometry">
            <mxPoint x="240" y="333" as="sourcePoint" />
            <mxPoint x="400" y="333" as="targetPoint" />
          </mxGeometry>
        </mxCell>
        <mxCell id="oFR8oHR5_JcXje1mtnLa-46" value="" style="endArrow=open;endSize=12;dashed=1;html=1;rounded=0;fontSize=12;curved=1;entryX=0;entryY=0.5;entryDx=0;entryDy=0;exitX=0;exitY=0.5;exitDx=0;exitDy=0;" parent="1" source="oFR8oHR5_JcXje1mtnLa-28" target="oFR8oHR5_JcXje1mtnLa-25" edge="1">
          <mxGeometry width="160" relative="1" as="geometry">
            <mxPoint x="250" y="480" as="sourcePoint" />
            <mxPoint x="410" y="480" as="targetPoint" />
            <Array as="points">
              <mxPoint x="650" y="260" />
            </Array>
          </mxGeometry>
        </mxCell>
        <mxCell id="oFR8oHR5_JcXje1mtnLa-47" value="" style="endArrow=open;endSize=12;dashed=1;html=1;rounded=0;fontSize=12;curved=1;exitX=1;exitY=0.5;exitDx=0;exitDy=0;entryX=0;entryY=0.5;entryDx=0;entryDy=0;" parent="1" source="oFR8oHR5_JcXje1mtnLa-18" target="oFR8oHR5_JcXje1mtnLa-31" edge="1">
          <mxGeometry width="160" relative="1" as="geometry">
            <mxPoint x="280" y="650" as="sourcePoint" />
            <mxPoint x="440" y="650" as="targetPoint" />
          </mxGeometry>
        </mxCell>
        <mxCell id="oFR8oHR5_JcXje1mtnLa-48" value="" style="endArrow=open;endSize=12;dashed=1;html=1;rounded=0;fontSize=12;curved=1;exitX=0;exitY=0.5;exitDx=0;exitDy=0;entryX=1;entryY=0.5;entryDx=0;entryDy=0;" parent="1" source="oFR8oHR5_JcXje1mtnLa-24" target="oFR8oHR5_JcXje1mtnLa-12" edge="1">
          <mxGeometry width="160" relative="1" as="geometry">
            <mxPoint x="265" y="110" as="sourcePoint" />
            <mxPoint x="425" y="110" as="targetPoint" />
          </mxGeometry>
        </mxCell>
        <mxCell id="oFR8oHR5_JcXje1mtnLa-49" value="" style="endArrow=open;endSize=12;dashed=1;html=1;rounded=0;fontSize=12;curved=1;entryX=1;entryY=0.5;entryDx=0;entryDy=0;exitX=0;exitY=0.5;exitDx=0;exitDy=0;" parent="1" source="oFR8oHR5_JcXje1mtnLa-26" target="oFR8oHR5_JcXje1mtnLa-13" edge="1">
          <mxGeometry width="160" relative="1" as="geometry">
            <mxPoint x="260" y="490" as="sourcePoint" />
            <mxPoint x="420" y="490" as="targetPoint" />
            <Array as="points">
              <mxPoint x="680" y="350" />
            </Array>
          </mxGeometry>
        </mxCell>
        <mxCell id="oFR8oHR5_JcXje1mtnLa-50" value="" style="endArrow=open;endSize=12;dashed=1;html=1;rounded=0;fontSize=12;curved=1;exitX=0;exitY=0.5;exitDx=0;exitDy=0;entryX=0;entryY=0.5;entryDx=0;entryDy=0;" parent="1" source="oFR8oHR5_JcXje1mtnLa-28" target="oFR8oHR5_JcXje1mtnLa-24" edge="1">
          <mxGeometry width="160" relative="1" as="geometry">
            <mxPoint x="240" y="390" as="sourcePoint" />
            <mxPoint x="680" y="230" as="targetPoint" />
            <Array as="points">
              <mxPoint x="640" y="310" />
            </Array>
          </mxGeometry>
        </mxCell>
        <mxCell id="oFR8oHR5_JcXje1mtnLa-51" value="" style="endArrow=open;endSize=12;dashed=1;html=1;rounded=0;fontSize=12;curved=1;exitX=0;exitY=0.5;exitDx=0;exitDy=0;" parent="1" source="oFR8oHR5_JcXje1mtnLa-24" edge="1">
          <mxGeometry width="160" relative="1" as="geometry">
            <mxPoint x="240" y="280" as="sourcePoint" />
            <mxPoint x="620" y="180" as="targetPoint" />
          </mxGeometry>
        </mxCell>
        <mxCell id="oFR8oHR5_JcXje1mtnLa-52" value="" style="endArrow=open;endSize=12;dashed=1;html=1;rounded=0;fontSize=12;curved=1;entryX=1;entryY=0.5;entryDx=0;entryDy=0;exitX=0;exitY=0.5;exitDx=0;exitDy=0;" parent="1" edge="1" target="oFR8oHR5_JcXje1mtnLa-35" source="oFR8oHR5_JcXje1mtnLa-28">
          <mxGeometry width="160" relative="1" as="geometry">
            <mxPoint x="430" y="410" as="sourcePoint" />
            <mxPoint x="620" y="870" as="targetPoint" />
            <Array as="points">
              <mxPoint x="700" y="660" />
              <mxPoint x="680" y="820" />
            </Array>
          </mxGeometry>
        </mxCell>
        <mxCell id="oFR8oHR5_JcXje1mtnLa-53" value="" style="endArrow=open;endSize=12;dashed=1;html=1;rounded=0;fontSize=12;curved=1;exitX=0;exitY=0.5;exitDx=0;exitDy=0;entryX=1;entryY=0.5;entryDx=0;entryDy=0;" parent="1" source="oFR8oHR5_JcXje1mtnLa-27" target="oFR8oHR5_JcXje1mtnLa-15" edge="1">
          <mxGeometry width="160" relative="1" as="geometry">
            <mxPoint x="280" y="590" as="sourcePoint" />
            <mxPoint x="440" y="590" as="targetPoint" />
            <Array as="points">
              <mxPoint x="660" y="320" />
            </Array>
          </mxGeometry>
        </mxCell>
        <mxCell id="oFR8oHR5_JcXje1mtnLa-54" value="" style="endArrow=open;endSize=12;dashed=1;html=1;rounded=0;fontSize=12;curved=1;exitX=1;exitY=0.5;exitDx=0;exitDy=0;entryX=0;entryY=0.5;entryDx=0;entryDy=0;" parent="1" source="oFR8oHR5_JcXje1mtnLa-21" target="oFR8oHR5_JcXje1mtnLa-25" edge="1">
          <mxGeometry width="160" relative="1" as="geometry">
            <mxPoint x="180" y="368.66999999999996" as="sourcePoint" />
            <mxPoint x="340" y="368.66999999999996" as="targetPoint" />
            <Array as="points">
              <mxPoint x="650" y="400" />
            </Array>
          </mxGeometry>
        </mxCell>
        <mxCell id="oFR8oHR5_JcXje1mtnLa-55" value="" style="endArrow=open;endSize=12;dashed=1;html=1;rounded=0;fontSize=12;curved=1;exitX=0.5;exitY=0;exitDx=0;exitDy=0;entryX=0.5;entryY=1;entryDx=0;entryDy=0;" parent="1" source="oFR8oHR5_JcXje1mtnLa-28" target="oFR8oHR5_JcXje1mtnLa-14" edge="1">
          <mxGeometry width="160" relative="1" as="geometry">
            <mxPoint x="270" y="415" as="sourcePoint" />
            <mxPoint x="430" y="415" as="targetPoint" />
          </mxGeometry>
        </mxCell>
        <mxCell id="oFR8oHR5_JcXje1mtnLa-56" value="" style="endArrow=open;endSize=12;dashed=1;html=1;rounded=0;fontSize=12;curved=1;exitX=0;exitY=0.5;exitDx=0;exitDy=0;entryX=0;entryY=0.5;entryDx=0;entryDy=0;" parent="1" source="oFR8oHR5_JcXje1mtnLa-27" target="oFR8oHR5_JcXje1mtnLa-25" edge="1">
          <mxGeometry width="160" relative="1" as="geometry">
            <mxPoint x="280" y="619.33" as="sourcePoint" />
            <mxPoint x="440" y="619.33" as="targetPoint" />
            <Array as="points">
              <mxPoint x="650" y="340" />
            </Array>
          </mxGeometry>
        </mxCell>
        <mxCell id="oFR8oHR5_JcXje1mtnLa-58" value="" style="endArrow=open;endSize=12;dashed=1;html=1;rounded=0;fontSize=12;curved=1;exitX=0;exitY=0.5;exitDx=0;exitDy=0;entryX=1;entryY=0.5;entryDx=0;entryDy=0;" parent="1" source="oFR8oHR5_JcXje1mtnLa-22" target="oFR8oHR5_JcXje1mtnLa-17" edge="1">
          <mxGeometry width="160" relative="1" as="geometry">
            <mxPoint x="290" y="660" as="sourcePoint" />
            <mxPoint x="450" y="660" as="targetPoint" />
          </mxGeometry>
        </mxCell>
        <mxCell id="oFR8oHR5_JcXje1mtnLa-59" value="" style="endArrow=open;endSize=12;dashed=1;html=1;rounded=0;fontSize=12;curved=1;entryX=0;entryY=0.5;entryDx=0;entryDy=0;exitX=1;exitY=0.5;exitDx=0;exitDy=0;" parent="1" edge="1" target="oFR8oHR5_JcXje1mtnLa-38" source="oFR8oHR5_JcXje1mtnLa-18">
          <mxGeometry width="160" relative="1" as="geometry">
            <mxPoint x="425" y="1020" as="sourcePoint" />
            <mxPoint x="585" y="1020" as="targetPoint" />
            <Array as="points">
              <mxPoint x="710" y="570" />
              <mxPoint x="660" y="700" />
            </Array>
          </mxGeometry>
        </mxCell>
        <mxCell id="oFR8oHR5_JcXje1mtnLa-60" value="" style="endArrow=open;endSize=12;dashed=1;html=1;rounded=0;fontSize=12;curved=1;entryX=1;entryY=0.5;entryDx=0;entryDy=0;exitX=0;exitY=0.5;exitDx=0;exitDy=0;" parent="1" edge="1" target="oFR8oHR5_JcXje1mtnLa-35" source="oFR8oHR5_JcXje1mtnLa-29">
          <mxGeometry width="160" relative="1" as="geometry">
            <mxPoint x="300" y="670" as="sourcePoint" />
            <mxPoint x="460" y="670" as="targetPoint" />
            <Array as="points">
              <mxPoint x="700" y="730" />
              <mxPoint x="680" y="780" />
              <mxPoint x="680" y="850" />
            </Array>
          </mxGeometry>
        </mxCell>
        <mxCell id="oRa6-QDFx7SYfNOYwBIq-6" value="" style="endArrow=open;endSize=12;dashed=1;html=1;rounded=0;fontSize=12;curved=1;entryX=1;entryY=0.5;entryDx=0;entryDy=0;exitX=1;exitY=0.5;exitDx=0;exitDy=0;" edge="1" parent="1" source="oFR8oHR5_JcXje1mtnLa-13" target="oFR8oHR5_JcXje1mtnLa-37">
          <mxGeometry width="160" relative="1" as="geometry">
            <mxPoint x="300" y="784.38" as="sourcePoint" />
            <mxPoint x="460" y="784.38" as="targetPoint" />
            <Array as="points">
              <mxPoint x="690" y="420" />
              <mxPoint x="700" y="610" />
            </Array>
          </mxGeometry>
        </mxCell>
        <mxCell id="oRa6-QDFx7SYfNOYwBIq-8" value="" style="endArrow=none;html=1;rounded=0;fontSize=12;startSize=8;endSize=8;curved=1;entryX=0;entryY=0.5;entryDx=0;entryDy=0;" edge="1" parent="1" target="oFR8oHR5_JcXje1mtnLa-12">
          <mxGeometry width="50" height="50" relative="1" as="geometry">
            <mxPoint x="60" y="640" as="sourcePoint" />
            <mxPoint x="370" y="320" as="targetPoint" />
          </mxGeometry>
        </mxCell>
        <mxCell id="oRa6-QDFx7SYfNOYwBIq-10" value="" style="endArrow=none;html=1;rounded=0;fontSize=12;startSize=8;endSize=8;curved=1;entryX=0;entryY=0.5;entryDx=0;entryDy=0;" edge="1" parent="1" target="oFR8oHR5_JcXje1mtnLa-13">
          <mxGeometry width="50" height="50" relative="1" as="geometry">
            <mxPoint x="60" y="290" as="sourcePoint" />
            <mxPoint x="130" y="260" as="targetPoint" />
          </mxGeometry>
        </mxCell>
        <mxCell id="oRa6-QDFx7SYfNOYwBIq-12" value="" style="endArrow=none;html=1;rounded=0;fontSize=12;startSize=8;endSize=8;curved=1;entryX=0;entryY=0.5;entryDx=0;entryDy=0;" edge="1" parent="1" target="oFR8oHR5_JcXje1mtnLa-37">
          <mxGeometry width="50" height="50" relative="1" as="geometry">
            <mxPoint x="60" y="290" as="sourcePoint" />
            <mxPoint x="150" y="290" as="targetPoint" />
          </mxGeometry>
        </mxCell>
        <mxCell id="oRa6-QDFx7SYfNOYwBIq-14" value="" style="endArrow=none;html=1;rounded=0;fontSize=12;startSize=8;endSize=8;curved=1;entryX=0;entryY=0.5;entryDx=0;entryDy=0;" edge="1" parent="1" target="oFR8oHR5_JcXje1mtnLa-35">
          <mxGeometry width="50" height="50" relative="1" as="geometry">
            <mxPoint x="70" y="520" as="sourcePoint" />
            <mxPoint x="158" y="530" as="targetPoint" />
          </mxGeometry>
        </mxCell>
        <mxCell id="oRa6-QDFx7SYfNOYwBIq-16" value="" style="endArrow=none;html=1;rounded=0;fontSize=12;startSize=8;endSize=8;curved=1;entryX=0;entryY=0.5;entryDx=0;entryDy=0;" edge="1" parent="1" target="oFR8oHR5_JcXje1mtnLa-29">
          <mxGeometry width="50" height="50" relative="1" as="geometry">
            <mxPoint x="60" y="640" as="sourcePoint" />
            <mxPoint x="350" y="530" as="targetPoint" />
          </mxGeometry>
        </mxCell>
        <mxCell id="oRa6-QDFx7SYfNOYwBIq-18" value="" style="endArrow=none;html=1;rounded=0;fontSize=12;startSize=8;endSize=8;curved=1;entryX=0;entryY=0.5;entryDx=0;entryDy=0;" edge="1" parent="1" target="oFR8oHR5_JcXje1mtnLa-41">
          <mxGeometry width="50" height="50" relative="1" as="geometry">
            <mxPoint x="70" y="520" as="sourcePoint" />
            <mxPoint x="132" y="496" as="targetPoint" />
          </mxGeometry>
        </mxCell>
        <mxCell id="oRa6-QDFx7SYfNOYwBIq-20" value="" style="endArrow=none;html=1;rounded=0;fontSize=12;startSize=8;endSize=8;curved=1;entryX=0;entryY=0.5;entryDx=0;entryDy=0;" edge="1" parent="1" target="oFR8oHR5_JcXje1mtnLa-28">
          <mxGeometry width="50" height="50" relative="1" as="geometry">
            <mxPoint x="70" y="520" as="sourcePoint" />
            <mxPoint x="190" y="500" as="targetPoint" />
            <Array as="points">
              <mxPoint x="400" y="530" />
            </Array>
          </mxGeometry>
        </mxCell>
        <mxCell id="oRa6-QDFx7SYfNOYwBIq-24" value="" style="endArrow=none;html=1;rounded=0;fontSize=12;startSize=8;endSize=8;curved=1;entryX=0;entryY=0.5;entryDx=0;entryDy=0;" edge="1" parent="1" target="oFR8oHR5_JcXje1mtnLa-15">
          <mxGeometry width="50" height="50" relative="1" as="geometry">
            <mxPoint x="60" y="870" as="sourcePoint" />
            <mxPoint x="430" y="280" as="targetPoint" />
          </mxGeometry>
        </mxCell>
        <mxCell id="oRa6-QDFx7SYfNOYwBIq-40" value="" style="endArrow=none;html=1;rounded=0;fontSize=12;startSize=8;endSize=8;curved=1;entryX=0;entryY=0.5;entryDx=0;entryDy=0;" edge="1" parent="1" target="oFR8oHR5_JcXje1mtnLa-24">
          <mxGeometry width="50" height="50" relative="1" as="geometry">
            <mxPoint x="60" y="640" as="sourcePoint" />
            <mxPoint x="150" y="609" as="targetPoint" />
          </mxGeometry>
        </mxCell>
        <mxCell id="oRa6-QDFx7SYfNOYwBIq-42" value="" style="endArrow=none;html=1;rounded=0;fontSize=12;startSize=8;endSize=8;curved=1;entryX=0;entryY=0.5;entryDx=0;entryDy=0;" edge="1" parent="1" target="oFR8oHR5_JcXje1mtnLa-16">
          <mxGeometry width="50" height="50" relative="1" as="geometry">
            <mxPoint x="60" y="870" as="sourcePoint" />
            <mxPoint x="480" y="500" as="targetPoint" />
          </mxGeometry>
        </mxCell>
        <mxCell id="oRa6-QDFx7SYfNOYwBIq-44" value="" style="endArrow=none;html=1;rounded=0;fontSize=12;startSize=8;endSize=8;curved=1;entryX=0;entryY=0.5;entryDx=0;entryDy=0;" edge="1" parent="1" target="oFR8oHR5_JcXje1mtnLa-20">
          <mxGeometry width="50" height="50" relative="1" as="geometry">
            <mxPoint x="60" y="870" as="sourcePoint" />
            <mxPoint x="190" y="880" as="targetPoint" />
          </mxGeometry>
        </mxCell>
        <mxCell id="oRa6-QDFx7SYfNOYwBIq-48" value="" style="endArrow=none;html=1;rounded=0;fontSize=12;startSize=8;endSize=8;curved=1;entryX=0;entryY=0.5;entryDx=0;entryDy=0;" edge="1" parent="1" target="oFR8oHR5_JcXje1mtnLa-26">
          <mxGeometry width="50" height="50" relative="1" as="geometry">
            <mxPoint x="60" y="290" as="sourcePoint" />
            <mxPoint x="140" y="273" as="targetPoint" />
            <Array as="points">
              <mxPoint x="370" y="470" />
            </Array>
          </mxGeometry>
        </mxCell>
        <mxCell id="oRa6-QDFx7SYfNOYwBIq-72" value="Physicist" style="shape=umlActor;verticalLabelPosition=bottom;verticalAlign=top;html=1;outlineConnect=0;" vertex="1" parent="1">
          <mxGeometry x="20" y="830" width="30" height="60" as="geometry" />
        </mxCell>
        <mxCell id="oRa6-QDFx7SYfNOYwBIq-73" value="" style="endArrow=none;html=1;rounded=0;fontSize=12;startSize=8;endSize=8;curved=1;entryX=0;entryY=0.5;entryDx=0;entryDy=0;" edge="1" parent="1" target="oFR8oHR5_JcXje1mtnLa-22">
          <mxGeometry width="50" height="50" relative="1" as="geometry">
            <mxPoint x="80" y="400" as="sourcePoint" />
            <mxPoint x="138" y="379" as="targetPoint" />
            <Array as="points">
              <mxPoint x="400" y="240" />
              <mxPoint x="580" y="140" />
            </Array>
          </mxGeometry>
        </mxCell>
        <mxCell id="oRa6-QDFx7SYfNOYwBIq-74" value="" style="endArrow=none;html=1;rounded=0;fontSize=12;startSize=8;endSize=8;curved=1;entryX=0;entryY=0.5;entryDx=0;entryDy=0;" edge="1" parent="1" target="oFR8oHR5_JcXje1mtnLa-17">
          <mxGeometry width="50" height="50" relative="1" as="geometry">
            <mxPoint x="80" y="400" as="sourcePoint" />
            <mxPoint x="155" y="379" as="targetPoint" />
          </mxGeometry>
        </mxCell>
        <mxCell id="oRa6-QDFx7SYfNOYwBIq-75" value="" style="endArrow=none;html=1;rounded=0;fontSize=12;startSize=8;endSize=8;curved=1;entryX=0;entryY=0.5;entryDx=0;entryDy=0;" edge="1" parent="1" target="oFR8oHR5_JcXje1mtnLa-30">
          <mxGeometry width="50" height="50" relative="1" as="geometry">
            <mxPoint x="80" y="400" as="sourcePoint" />
            <mxPoint x="180" y="390" as="targetPoint" />
            <Array as="points">
              <mxPoint x="420" y="560" />
            </Array>
          </mxGeometry>
        </mxCell>
        <mxCell id="oRa6-QDFx7SYfNOYwBIq-76" value="" style="endArrow=none;html=1;rounded=0;fontSize=12;startSize=8;endSize=8;curved=1;entryX=0;entryY=0.5;entryDx=0;entryDy=0;" edge="1" parent="1" target="oFR8oHR5_JcXje1mtnLa-18">
          <mxGeometry width="50" height="50" relative="1" as="geometry">
            <mxPoint x="70" y="60" as="sourcePoint" />
            <mxPoint x="140" y="18" as="targetPoint" />
          </mxGeometry>
        </mxCell>
        <mxCell id="oRa6-QDFx7SYfNOYwBIq-77" value="" style="endArrow=none;html=1;rounded=0;fontSize=12;startSize=8;endSize=8;curved=1;entryX=0;entryY=0.5;entryDx=0;entryDy=0;" edge="1" parent="1" target="oFR8oHR5_JcXje1mtnLa-38">
          <mxGeometry width="50" height="50" relative="1" as="geometry">
            <mxPoint x="70" y="60" as="sourcePoint" />
            <mxPoint x="440" y="510" as="targetPoint" />
            <Array as="points">
              <mxPoint x="170" y="940" />
            </Array>
          </mxGeometry>
        </mxCell>
        <mxCell id="oRa6-QDFx7SYfNOYwBIq-78" value="" style="endArrow=none;html=1;rounded=0;fontSize=12;startSize=8;endSize=8;curved=1;entryX=0;entryY=0.5;entryDx=0;entryDy=0;" edge="1" parent="1" target="oFR8oHR5_JcXje1mtnLa-31">
          <mxGeometry width="50" height="50" relative="1" as="geometry">
            <mxPoint x="70" y="60" as="sourcePoint" />
            <mxPoint x="310" y="130" as="targetPoint" />
            <Array as="points">
              <mxPoint x="260" y="660" />
            </Array>
          </mxGeometry>
        </mxCell>
        <mxCell id="oRa6-QDFx7SYfNOYwBIq-81" value="" style="endArrow=none;html=1;rounded=0;fontSize=12;startSize=8;endSize=8;curved=1;entryX=0;entryY=0.5;entryDx=0;entryDy=0;" edge="1" parent="1" target="oFR8oHR5_JcXje1mtnLa-23">
          <mxGeometry width="50" height="50" relative="1" as="geometry">
            <mxPoint x="70" y="750" as="sourcePoint" />
            <mxPoint x="510" y="360" as="targetPoint" />
          </mxGeometry>
        </mxCell>
        <mxCell id="oRa6-QDFx7SYfNOYwBIq-82" value="" style="endArrow=none;html=1;rounded=0;fontSize=12;startSize=8;endSize=8;curved=1;entryX=0;entryY=0.5;entryDx=0;entryDy=0;" edge="1" parent="1" target="oFR8oHR5_JcXje1mtnLa-19">
          <mxGeometry width="50" height="50" relative="1" as="geometry">
            <mxPoint x="70" y="750" as="sourcePoint" />
            <mxPoint x="170" y="750" as="targetPoint" />
          </mxGeometry>
        </mxCell>
        <mxCell id="oRa6-QDFx7SYfNOYwBIq-83" value="Data Scientist" style="shape=umlActor;verticalLabelPosition=bottom;verticalAlign=top;html=1;outlineConnect=0;" vertex="1" parent="1">
          <mxGeometry x="20" y="940" width="30" height="60" as="geometry" />
        </mxCell>
        <mxCell id="oRa6-QDFx7SYfNOYwBIq-84" value="" style="endArrow=none;html=1;rounded=0;fontSize=12;startSize=8;endSize=8;curved=1;entryX=0;entryY=0.5;entryDx=0;entryDy=0;" edge="1" parent="1" target="oFR8oHR5_JcXje1mtnLa-25">
          <mxGeometry width="50" height="50" relative="1" as="geometry">
            <mxPoint x="80" y="189" as="sourcePoint" />
            <mxPoint x="150" y="147" as="targetPoint" />
          </mxGeometry>
        </mxCell>
        <mxCell id="oRa6-QDFx7SYfNOYwBIq-85" value="" style="endArrow=none;html=1;rounded=0;fontSize=12;startSize=8;endSize=8;curved=1;entryX=0;entryY=0.5;entryDx=0;entryDy=0;" edge="1" parent="1" target="oFR8oHR5_JcXje1mtnLa-21">
          <mxGeometry width="50" height="50" relative="1" as="geometry">
            <mxPoint x="80" y="189" as="sourcePoint" />
            <mxPoint x="170" y="177" as="targetPoint" />
          </mxGeometry>
        </mxCell>
        <mxCell id="oRa6-QDFx7SYfNOYwBIq-86" value="" style="endArrow=none;html=1;rounded=0;fontSize=12;startSize=8;endSize=8;curved=1;entryX=0;entryY=0.5;entryDx=0;entryDy=0;" edge="1" parent="1" target="oFR8oHR5_JcXje1mtnLa-36">
          <mxGeometry width="50" height="50" relative="1" as="geometry">
            <mxPoint x="80" y="189" as="sourcePoint" />
            <mxPoint x="730" y="870" as="targetPoint" />
            <Array as="points">
              <mxPoint x="90" y="850" />
            </Array>
          </mxGeometry>
        </mxCell>
        <mxCell id="oRa6-QDFx7SYfNOYwBIq-87" value="" style="endArrow=none;html=1;rounded=0;fontSize=12;startSize=8;endSize=8;curved=1;entryX=0;entryY=0.5;entryDx=0;entryDy=0;" edge="1" parent="1" target="oFR8oHR5_JcXje1mtnLa-14">
          <mxGeometry width="50" height="50" relative="1" as="geometry">
            <mxPoint x="80" y="981" as="sourcePoint" />
            <mxPoint x="280" y="800" as="targetPoint" />
            <Array as="points">
              <mxPoint x="290" y="250" />
            </Array>
          </mxGeometry>
        </mxCell>
        <mxCell id="oRa6-QDFx7SYfNOYwBIq-89" value="" style="endArrow=none;html=1;rounded=0;fontSize=12;startSize=8;endSize=8;curved=1;entryX=0;entryY=0.5;entryDx=0;entryDy=0;" edge="1" parent="1" target="oFR8oHR5_JcXje1mtnLa-27">
          <mxGeometry width="50" height="50" relative="1" as="geometry">
            <mxPoint x="80" y="981" as="sourcePoint" />
            <mxPoint x="160" y="952" as="targetPoint" />
            <Array as="points">
              <mxPoint x="300" y="560" />
            </Array>
          </mxGeometry>
        </mxCell>
      </root>
    </mxGraphModel>
  </diagram>
</mxfile>
